<?xml version="1.0" standalone="no"?>
<!DOCTYPE svg PUBLIC "-//W3C//DTD SVG 20010904//EN"
 "http://www.w3.org/TR/2001/REC-SVG-20010904/DTD/svg10.dtd">
<svg version="1.0" xmlns="http://www.w3.org/2000/svg"
 width="400.000000pt" height="400.000000pt" viewBox="0 0 400.000000 400.000000"
 preserveAspectRatio="xMidYMid meet">
<metadata>
Created by potrace 1.11, written by Peter Selinger 2001-2013
</metadata>
<g transform="translate(0.000000,400.000000) scale(0.100000,-0.100000)"
fill="#000000" stroke="none">
<path d="M1000 1999 c0 -632 3 -799 13 -800 6 0 62 -1 122 -1 l110 -1 0 334
c0 184 3 336 7 339 5 4 78 5 133 1 33 -2 63 -33 251 -267 183 -226 318 -385
336 -395 20 -11 252 -19 268 -9 6 4 -135 191 -233 310 -7 9 -55 69 -107 135
-51 66 -125 161 -164 210 -70 89 -105 124 -135 136 -12 5 -8 10 15 22 18 9 47
36 65 59 19 24 38 48 44 55 5 7 15 18 20 25 18 22 488 622 497 634 6 8 -27 11
-121 11 -103 0 -136 -3 -155 -16 -14 -9 -137 -153 -274 -321 -137 -168 -257
-312 -267 -320 -12 -10 -46 -16 -99 -18 l-81 -4 2 336 c2 307 0 335 -15 339
-9 3 -65 5 -124 5 l-108 -1 0 -798z"/>
<path d="M2329 2744 c-24 -31 -52 -65 -61 -76 -36 -43 -25 -66 123 -254 307
-389 303 -385 339 -404 21 -11 20 -12 -11 -33 -18 -12 -102 -110 -187 -217
-241 -305 -282 -361 -282 -385 0 -20 106 -173 121 -175 3 0 48 53 100 117 155
193 399 495 435 538 77 94 94 119 94 140 0 23 -29 64 -160 225 -46 58 -89 111
-95 118 -5 7 -17 21 -25 31 -8 9 -69 84 -135 166 -65 83 -122 152 -125 155 -3
3 -24 28 -46 57 l-41 52 -44 -55z"/>
</g>
</svg>
